<?xml version="1.0" encoding="UTF-8" standalone="no"?>
<!DOCTYPE svg PUBLIC "-//W3C//DTD SVG 1.1//EN"
 "http://www.w3.org/Graphics/SVG/1.1/DTD/svg11.dtd">
<!-- Generated by graphviz version 5.0.0 (20220707.1540)
 -->
<!-- Title: dependencies Pages: 1 -->
<svg width="378pt" height="174pt"
 viewBox="0.00 0.00 378.00 173.80" xmlns="http://www.w3.org/2000/svg" xmlns:xlink="http://www.w3.org/1999/xlink">
<g id="graph0" class="graph" transform="scale(1 1) rotate(0) translate(4 169.8)">
<title>dependencies</title>
<polygon fill="white" stroke="transparent" points="-4,4 -4,-169.8 374,-169.8 374,4 -4,4"/>
<text text-anchor="middle" x="185" y="-8.2" font-family="sans-serif" font-size="14.00">dependencies</text>
<g id="clust1" class="cluster">
<title>cluster_SharedModule</title>
<polygon fill="none" stroke="black" stroke-dasharray="1,5" points="8,-32.8 8,-157.8 362,-157.8 362,-32.8 8,-32.8"/>
</g>
<g id="clust4" class="cluster">
<title>cluster_SharedModule_exports</title>
<polygon fill="none" stroke="black" points="16,-97.8 16,-149.8 354,-149.8 354,-97.8 16,-97.8"/>
</g>
<!-- NgImportModule  -->
<g id="node1" class="node">
<title>NgImportModule </title>
<polygon fill="#fb8072" stroke="black" points="346.27,-141.8 227.73,-141.8 227.73,-105.8 346.27,-105.8 346.27,-141.8"/>
<text text-anchor="middle" x="287" y="-119.6" font-family="Times,serif" font-size="14.00">NgImportModule </text>
</g>
<!-- UiModule  -->
<g id="node2" class="node">
<title>UiModule </title>
<polygon fill="#fb8072" stroke="black" points="209.55,-141.8 132.45,-141.8 132.45,-105.8 209.55,-105.8 209.55,-141.8"/>
<text text-anchor="middle" x="171" y="-119.6" font-family="Times,serif" font-size="14.00">UiModule </text>
</g>
<!-- UtilsModule  -->
<g id="node3" class="node">
<title>UtilsModule </title>
<polygon fill="#fb8072" stroke="black" points="114.28,-141.8 23.72,-141.8 23.72,-105.8 114.28,-105.8 114.28,-141.8"/>
<text text-anchor="middle" x="69" y="-119.6" font-family="Times,serif" font-size="14.00">UtilsModule </text>
</g>
<!-- SharedModule -->
<g id="node4" class="node">
<title>SharedModule</title>
<polygon fill="#8dd3c7" stroke="black" points="220.43,-76.8 217.43,-80.8 196.43,-80.8 193.43,-76.8 121.57,-76.8 121.57,-40.8 220.43,-40.8 220.43,-76.8"/>
<text text-anchor="middle" x="171" y="-54.6" font-family="Times,serif" font-size="14.00">SharedModule</text>
</g>
<!-- SharedModule&#45;&gt;NgImportModule  -->
<g id="edge1" class="edge">
<title>SharedModule&#45;&gt;NgImportModule </title>
<path fill="none" stroke="black" stroke-dasharray="5,2" d="M214.87,-76.91C214.87,-96.14 214.87,-123.8 214.87,-123.8 214.87,-123.8 217.77,-123.8 217.77,-123.8"/>
<polygon fill="black" stroke="black" points="217.77,-127.3 227.77,-123.8 217.77,-120.3 217.77,-127.3"/>
</g>
<!-- SharedModule&#45;&gt;UiModule  -->
<g id="edge2" class="edge">
<title>SharedModule&#45;&gt;UiModule </title>
<path fill="none" stroke="black" stroke-dasharray="5,2" d="M171,-76.91C171,-76.91 171,-95.79 171,-95.79"/>
<polygon fill="black" stroke="black" points="167.5,-95.79 171,-105.79 174.5,-95.79 167.5,-95.79"/>
</g>
<!-- SharedModule&#45;&gt;UtilsModule  -->
<g id="edge3" class="edge">
<title>SharedModule&#45;&gt;UtilsModule </title>
<path fill="none" stroke="black" stroke-dasharray="5,2" d="M127.13,-76.91C127.13,-96.14 127.13,-123.8 127.13,-123.8 127.13,-123.8 124.23,-123.8 124.23,-123.8"/>
<polygon fill="black" stroke="black" points="124.23,-120.3 114.23,-123.8 124.23,-127.3 124.23,-120.3"/>
</g>
</g>
</svg>
