<?xml version="1.0" encoding="UTF-8" standalone="no"?>
<!DOCTYPE svg PUBLIC "-//W3C//DTD SVG 1.1//EN"
 "http://www.w3.org/Graphics/SVG/1.1/DTD/svg11.dtd">
<!-- Generated by graphviz version 5.0.0 (20220707.1540)
 -->
<!-- Title: dependencies Pages: 1 -->
<svg width="654pt" height="247pt"
 viewBox="0.00 0.00 654.00 246.80" xmlns="http://www.w3.org/2000/svg" xmlns:xlink="http://www.w3.org/1999/xlink">
<g id="graph0" class="graph" transform="scale(1 1) rotate(0) translate(4 242.8)">
<title>dependencies</title>
<polygon fill="white" stroke="transparent" points="-4,4 -4,-242.8 650,-242.8 650,4 -4,4"/>
<text text-anchor="middle" x="323" y="-8.2" font-family="sans-serif" font-size="14.00">dependencies</text>
<g id="clust1" class="cluster">
<title>cluster_UiModule</title>
<polygon fill="none" stroke="black" stroke-dasharray="1,5" points="8,-32.8 8,-230.8 638,-230.8 638,-32.8 8,-32.8"/>
</g>
<g id="clust6" class="cluster">
<title>cluster_UiModule_imports</title>
<polygon fill="none" stroke="black" points="500,-40.8 500,-92.8 630,-92.8 630,-40.8 500,-40.8"/>
</g>
<g id="clust7" class="cluster">
<title>cluster_UiModule_exports</title>
<polygon fill="none" stroke="black" points="79,-170.8 79,-222.8 566,-222.8 566,-170.8 79,-170.8"/>
</g>
<g id="clust2" class="cluster">
<title>cluster_UiModule_declarations</title>
<polygon fill="none" stroke="black" points="16,-40.8 16,-92.8 492,-92.8 492,-40.8 16,-40.8"/>
</g>
<!-- UiHeaderComponent -->
<g id="node1" class="node">
<title>UiHeaderComponent</title>
<polygon fill="#ffffb3" stroke="black" points="483.75,-84.8 348.25,-84.8 348.25,-48.8 483.75,-48.8 483.75,-84.8"/>
<text text-anchor="middle" x="416" y="-62.6" font-family="Times,serif" font-size="14.00">UiHeaderComponent</text>
</g>
<!-- UiModule -->
<g id="node4" class="node">
<title>UiModule</title>
<polygon fill="#8dd3c7" stroke="black" points="369.55,-149.8 366.55,-153.8 345.55,-153.8 342.55,-149.8 296.45,-149.8 296.45,-113.8 369.55,-113.8 369.55,-149.8"/>
<text text-anchor="middle" x="333" y="-127.6" font-family="Times,serif" font-size="14.00">UiModule</text>
</g>
<!-- UiHeaderComponent&#45;&gt;UiModule -->
<g id="edge1" class="edge">
<title>UiHeaderComponent&#45;&gt;UiModule</title>
<path fill="none" stroke="black" d="M358.95,-84.91C358.95,-84.91 358.95,-103.79 358.95,-103.79"/>
<polygon fill="black" stroke="black" points="355.45,-103.79 358.95,-113.79 362.45,-103.79 355.45,-103.79"/>
</g>
<!-- UiImageComponent -->
<g id="node2" class="node">
<title>UiImageComponent</title>
<polygon fill="#ffffb3" stroke="black" points="330.31,-84.8 199.69,-84.8 199.69,-48.8 330.31,-48.8 330.31,-84.8"/>
<text text-anchor="middle" x="265" y="-62.6" font-family="Times,serif" font-size="14.00">UiImageComponent</text>
</g>
<!-- UiImageComponent&#45;&gt;UiModule -->
<g id="edge2" class="edge">
<title>UiImageComponent&#45;&gt;UiModule</title>
<path fill="none" stroke="black" d="M313.19,-84.91C313.19,-84.91 313.19,-103.79 313.19,-103.79"/>
<polygon fill="black" stroke="black" points="309.69,-103.79 313.19,-113.79 316.69,-103.79 309.69,-103.79"/>
</g>
<!-- UiNavigationComponent -->
<g id="node3" class="node">
<title>UiNavigationComponent</title>
<polygon fill="#ffffb3" stroke="black" points="181.54,-84.8 24.46,-84.8 24.46,-48.8 181.54,-48.8 181.54,-84.8"/>
<text text-anchor="middle" x="103" y="-62.6" font-family="Times,serif" font-size="14.00">UiNavigationComponent</text>
</g>
<!-- UiNavigationComponent&#45;&gt;UiModule -->
<g id="edge3" class="edge">
<title>UiNavigationComponent&#45;&gt;UiModule</title>
<path fill="none" stroke="black" d="M134.62,-84.82C134.62,-102.17 134.62,-125.8 134.62,-125.8 134.62,-125.8 286.15,-125.8 286.15,-125.8"/>
<polygon fill="black" stroke="black" points="286.15,-129.3 296.15,-125.8 286.15,-122.3 286.15,-129.3"/>
</g>
<!-- UiHeaderComponent  -->
<g id="node6" class="node">
<title>UiHeaderComponent </title>
<polygon fill="#fb8072" stroke="black" points="557.75,-214.8 418.25,-214.8 418.25,-178.8 557.75,-178.8 557.75,-214.8"/>
<text text-anchor="middle" x="488" y="-192.6" font-family="Times,serif" font-size="14.00">UiHeaderComponent </text>
</g>
<!-- UiModule&#45;&gt;UiHeaderComponent  -->
<g id="edge5" class="edge">
<title>UiModule&#45;&gt;UiHeaderComponent </title>
<path fill="none" stroke="black" stroke-dasharray="5,2" d="M369.73,-137.8C404.4,-137.8 451.12,-137.8 451.12,-137.8 451.12,-137.8 451.12,-168.78 451.12,-168.78"/>
<polygon fill="black" stroke="black" points="447.63,-168.78 451.12,-178.78 454.63,-168.78 447.63,-168.78"/>
</g>
<!-- UiImageComponent  -->
<g id="node7" class="node">
<title>UiImageComponent </title>
<polygon fill="#fb8072" stroke="black" points="399.81,-214.8 266.19,-214.8 266.19,-178.8 399.81,-178.8 399.81,-214.8"/>
<text text-anchor="middle" x="333" y="-192.6" font-family="Times,serif" font-size="14.00">UiImageComponent </text>
</g>
<!-- UiModule&#45;&gt;UiImageComponent  -->
<g id="edge6" class="edge">
<title>UiModule&#45;&gt;UiImageComponent </title>
<path fill="none" stroke="black" stroke-dasharray="5,2" d="M333,-149.91C333,-149.91 333,-168.79 333,-168.79"/>
<polygon fill="black" stroke="black" points="329.5,-168.79 333,-178.79 336.5,-168.79 329.5,-168.79"/>
</g>
<!-- UiNavigationComponent  -->
<g id="node8" class="node">
<title>UiNavigationComponent </title>
<polygon fill="#fb8072" stroke="black" points="248.54,-214.8 87.46,-214.8 87.46,-178.8 248.54,-178.8 248.54,-214.8"/>
<text text-anchor="middle" x="168" y="-192.6" font-family="Times,serif" font-size="14.00">UiNavigationComponent </text>
</g>
<!-- UiModule&#45;&gt;UiNavigationComponent  -->
<g id="edge7" class="edge">
<title>UiModule&#45;&gt;UiNavigationComponent </title>
<path fill="none" stroke="black" stroke-dasharray="5,2" d="M296.16,-137.8C264.59,-137.8 224.18,-137.8 224.18,-137.8 224.18,-137.8 224.18,-168.78 224.18,-168.78"/>
<polygon fill="black" stroke="black" points="220.68,-168.78 224.18,-178.78 227.68,-168.78 220.68,-168.78"/>
</g>
<!-- NgImportModule -->
<g id="node5" class="node">
<title>NgImportModule</title>
<polygon fill="#8dd3c7" stroke="black" points="622.27,-84.8 619.27,-88.8 598.27,-88.8 595.27,-84.8 507.73,-84.8 507.73,-48.8 622.27,-48.8 622.27,-84.8"/>
<text text-anchor="middle" x="565" y="-62.6" font-family="Times,serif" font-size="14.00">NgImportModule</text>
</g>
<!-- NgImportModule&#45;&gt;UiModule -->
<g id="edge4" class="edge">
<title>NgImportModule&#45;&gt;UiModule</title>
<path fill="none" stroke="black" d="M532.62,-84.82C532.62,-102.17 532.62,-125.8 532.62,-125.8 532.62,-125.8 379.61,-125.8 379.61,-125.8"/>
<polygon fill="black" stroke="black" points="379.61,-122.3 369.61,-125.8 379.61,-129.3 379.61,-122.3"/>
</g>
</g>
</svg>
