<?xml version="1.0" encoding="UTF-8" standalone="no"?>
<!DOCTYPE svg PUBLIC "-//W3C//DTD SVG 1.1//EN"
 "http://www.w3.org/Graphics/SVG/1.1/DTD/svg11.dtd">
<!-- Generated by graphviz version 5.0.0 (20220707.1540)
 -->
<!-- Title: dependencies Pages: 1 -->
<svg width="834pt" height="247pt"
 viewBox="0.00 0.00 834.00 246.80" xmlns="http://www.w3.org/2000/svg" xmlns:xlink="http://www.w3.org/1999/xlink">
<g id="graph0" class="graph" transform="scale(1 1) rotate(0) translate(4 242.8)">
<title>dependencies</title>
<polygon fill="white" stroke="transparent" points="-4,4 -4,-242.8 830,-242.8 830,4 -4,4"/>
<text text-anchor="middle" x="413" y="-8.2" font-family="sans-serif" font-size="14.00">dependencies</text>
<g id="clust1" class="cluster">
<title>cluster_UiModule</title>
<polygon fill="none" stroke="black" stroke-dasharray="1,5" points="8,-32.8 8,-230.8 818,-230.8 818,-32.8 8,-32.8"/>
</g>
<g id="clust2" class="cluster">
<title>cluster_UiModule_declarations</title>
<polygon fill="none" stroke="black" points="154,-40.8 154,-92.8 810,-92.8 810,-40.8 154,-40.8"/>
</g>
<g id="clust8" class="cluster">
<title>cluster_UiModule_exports</title>
<polygon fill="none" stroke="black" points="78,-170.8 78,-222.8 749,-222.8 749,-170.8 78,-170.8"/>
</g>
<g id="clust7" class="cluster">
<title>cluster_UiModule_imports</title>
<polygon fill="none" stroke="black" points="16,-40.8 16,-92.8 146,-92.8 146,-40.8 16,-40.8"/>
</g>
<!-- UiHeaderComponent -->
<g id="node1" class="node">
<title>UiHeaderComponent</title>
<polygon fill="#ffffb3" stroke="black" points="801.75,-84.8 666.25,-84.8 666.25,-48.8 801.75,-48.8 801.75,-84.8"/>
<text text-anchor="middle" x="734" y="-62.6" font-family="Times,serif" font-size="14.00">UiHeaderComponent</text>
</g>
<!-- UiModule -->
<g id="node5" class="node">
<title>UiModule</title>
<polygon fill="#8dd3c7" stroke="black" points="457.55,-149.8 454.55,-153.8 433.55,-153.8 430.55,-149.8 384.45,-149.8 384.45,-113.8 457.55,-113.8 457.55,-149.8"/>
<text text-anchor="middle" x="421" y="-127.6" font-family="Times,serif" font-size="14.00">UiModule</text>
</g>
<!-- UiHeaderComponent&#45;&gt;UiModule -->
<g id="edge1" class="edge">
<title>UiHeaderComponent&#45;&gt;UiModule</title>
<path fill="none" stroke="black" d="M703.38,-84.91C703.38,-104.14 703.38,-131.8 703.38,-131.8 703.38,-131.8 467.63,-131.8 467.63,-131.8"/>
<polygon fill="black" stroke="black" points="467.63,-128.3 457.63,-131.8 467.63,-135.3 467.63,-128.3"/>
</g>
<!-- UiImageComponent -->
<g id="node2" class="node">
<title>UiImageComponent</title>
<polygon fill="#ffffb3" stroke="black" points="648.31,-84.8 517.69,-84.8 517.69,-48.8 648.31,-48.8 648.31,-84.8"/>
<text text-anchor="middle" x="583" y="-62.6" font-family="Times,serif" font-size="14.00">UiImageComponent</text>
</g>
<!-- UiImageComponent&#45;&gt;UiModule -->
<g id="edge2" class="edge">
<title>UiImageComponent&#45;&gt;UiModule</title>
<path fill="none" stroke="black" d="M550.38,-84.83C550.38,-101.2 550.38,-122.8 550.38,-122.8 550.38,-122.8 467.73,-122.8 467.73,-122.8"/>
<polygon fill="black" stroke="black" points="467.73,-119.3 457.73,-122.8 467.73,-126.3 467.73,-119.3"/>
</g>
<!-- UiNavigationComponent -->
<g id="node3" class="node">
<title>UiNavigationComponent</title>
<polygon fill="#ffffb3" stroke="black" points="499.54,-84.8 342.46,-84.8 342.46,-48.8 499.54,-48.8 499.54,-84.8"/>
<text text-anchor="middle" x="421" y="-62.6" font-family="Times,serif" font-size="14.00">UiNavigationComponent</text>
</g>
<!-- UiNavigationComponent&#45;&gt;UiModule -->
<g id="edge3" class="edge">
<title>UiNavigationComponent&#45;&gt;UiModule</title>
<path fill="none" stroke="black" d="M421,-84.91C421,-84.91 421,-103.79 421,-103.79"/>
<polygon fill="black" stroke="black" points="417.5,-103.79 421,-113.79 424.5,-103.79 417.5,-103.79"/>
</g>
<!-- UiNotificationComponent -->
<g id="node4" class="node">
<title>UiNotificationComponent</title>
<polygon fill="#ffffb3" stroke="black" points="324.48,-84.8 161.52,-84.8 161.52,-48.8 324.48,-48.8 324.48,-84.8"/>
<text text-anchor="middle" x="243" y="-62.6" font-family="Times,serif" font-size="14.00">UiNotificationComponent</text>
</g>
<!-- UiNotificationComponent&#45;&gt;UiModule -->
<g id="edge4" class="edge">
<title>UiNotificationComponent&#45;&gt;UiModule</title>
<path fill="none" stroke="black" d="M297.49,-84.83C297.49,-101.2 297.49,-122.8 297.49,-122.8 297.49,-122.8 374.28,-122.8 374.28,-122.8"/>
<polygon fill="black" stroke="black" points="374.28,-126.3 384.28,-122.8 374.28,-119.3 374.28,-126.3"/>
</g>
<!-- UiHeaderComponent  -->
<g id="node7" class="node">
<title>UiHeaderComponent </title>
<polygon fill="#fb8072" stroke="black" points="740.75,-214.8 601.25,-214.8 601.25,-178.8 740.75,-178.8 740.75,-214.8"/>
<text text-anchor="middle" x="671" y="-192.6" font-family="Times,serif" font-size="14.00">UiHeaderComponent </text>
</g>
<!-- UiModule&#45;&gt;UiHeaderComponent  -->
<g id="edge6" class="edge">
<title>UiModule&#45;&gt;UiHeaderComponent </title>
<path fill="none" stroke="black" stroke-dasharray="5,2" d="M457.9,-140.8C516.62,-140.8 624.77,-140.8 624.77,-140.8 624.77,-140.8 624.77,-168.77 624.77,-168.77"/>
<polygon fill="black" stroke="black" points="621.27,-168.77 624.77,-178.77 628.27,-168.77 621.27,-168.77"/>
</g>
<!-- UiImageComponent  -->
<g id="node8" class="node">
<title>UiImageComponent </title>
<polygon fill="#fb8072" stroke="black" points="582.81,-214.8 449.19,-214.8 449.19,-178.8 582.81,-178.8 582.81,-214.8"/>
<text text-anchor="middle" x="516" y="-192.6" font-family="Times,serif" font-size="14.00">UiImageComponent </text>
</g>
<!-- UiModule&#45;&gt;UiImageComponent  -->
<g id="edge7" class="edge">
<title>UiModule&#45;&gt;UiImageComponent </title>
<path fill="none" stroke="black" stroke-dasharray="5,2" d="M453.44,-149.91C453.44,-149.91 453.44,-168.79 453.44,-168.79"/>
<polygon fill="black" stroke="black" points="449.94,-168.79 453.44,-178.79 456.94,-168.79 449.94,-168.79"/>
</g>
<!-- UiNavigationComponent  -->
<g id="node9" class="node">
<title>UiNavigationComponent </title>
<polygon fill="#fb8072" stroke="black" points="431.54,-214.8 270.46,-214.8 270.46,-178.8 431.54,-178.8 431.54,-214.8"/>
<text text-anchor="middle" x="351" y="-192.6" font-family="Times,serif" font-size="14.00">UiNavigationComponent </text>
</g>
<!-- UiModule&#45;&gt;UiNavigationComponent  -->
<g id="edge8" class="edge">
<title>UiModule&#45;&gt;UiNavigationComponent </title>
<path fill="none" stroke="black" stroke-dasharray="5,2" d="M407.87,-149.91C407.87,-149.91 407.87,-168.79 407.87,-168.79"/>
<polygon fill="black" stroke="black" points="404.37,-168.79 407.87,-178.79 411.37,-168.79 404.37,-168.79"/>
</g>
<!-- UiNotificationComponent  -->
<g id="node10" class="node">
<title>UiNotificationComponent </title>
<polygon fill="#fb8072" stroke="black" points="252.48,-214.8 85.52,-214.8 85.52,-178.8 252.48,-178.8 252.48,-214.8"/>
<text text-anchor="middle" x="169" y="-192.6" font-family="Times,serif" font-size="14.00">UiNotificationComponent </text>
</g>
<!-- UiModule&#45;&gt;UiNotificationComponent  -->
<g id="edge9" class="edge">
<title>UiModule&#45;&gt;UiNotificationComponent </title>
<path fill="none" stroke="black" stroke-dasharray="5,2" d="M384.19,-140.8C322.97,-140.8 206.88,-140.8 206.88,-140.8 206.88,-140.8 206.88,-168.77 206.88,-168.77"/>
<polygon fill="black" stroke="black" points="203.38,-168.77 206.88,-178.77 210.38,-168.77 203.38,-168.77"/>
</g>
<!-- NgImportModule -->
<g id="node6" class="node">
<title>NgImportModule</title>
<polygon fill="#8dd3c7" stroke="black" points="138.27,-84.8 135.27,-88.8 114.27,-88.8 111.27,-84.8 23.73,-84.8 23.73,-48.8 138.27,-48.8 138.27,-84.8"/>
<text text-anchor="middle" x="81" y="-62.6" font-family="Times,serif" font-size="14.00">NgImportModule</text>
</g>
<!-- NgImportModule&#45;&gt;UiModule -->
<g id="edge5" class="edge">
<title>NgImportModule&#45;&gt;UiModule</title>
<path fill="none" stroke="black" d="M112.07,-84.91C112.07,-104.14 112.07,-131.8 112.07,-131.8 112.07,-131.8 374.35,-131.8 374.35,-131.8"/>
<polygon fill="black" stroke="black" points="374.35,-135.3 384.35,-131.8 374.35,-128.3 374.35,-135.3"/>
</g>
</g>
</svg>
