<?xml version="1.0" encoding="UTF-8" standalone="no"?>
<!DOCTYPE svg PUBLIC "-//W3C//DTD SVG 1.1//EN"
 "http://www.w3.org/Graphics/SVG/1.1/DTD/svg11.dtd">
<!-- Generated by graphviz version 5.0.0 (20220707.1540)
 -->
<!-- Title: dependencies Pages: 1 -->
<svg width="689pt" height="247pt"
 viewBox="0.00 0.00 689.00 246.80" xmlns="http://www.w3.org/2000/svg" xmlns:xlink="http://www.w3.org/1999/xlink">
<g id="graph0" class="graph" transform="scale(1 1) rotate(0) translate(4 242.8)">
<title>dependencies</title>
<polygon fill="white" stroke="transparent" points="-4,4 -4,-242.8 685,-242.8 685,4 -4,4"/>
<text text-anchor="middle" x="340.5" y="-8.2" font-family="sans-serif" font-size="14.00">dependencies</text>
<g id="clust1" class="cluster">
<title>cluster_UtilsModule</title>
<polygon fill="none" stroke="black" stroke-dasharray="1,5" points="8,-32.8 8,-230.8 673,-230.8 673,-32.8 8,-32.8"/>
</g>
<g id="clust2" class="cluster">
<title>cluster_UtilsModule_declarations</title>
<polygon fill="none" stroke="black" points="154,-40.8 154,-92.8 665,-92.8 665,-40.8 154,-40.8"/>
</g>
<g id="clust7" class="cluster">
<title>cluster_UtilsModule_exports</title>
<polygon fill="none" stroke="black" points="80,-170.8 80,-222.8 601,-222.8 601,-170.8 80,-170.8"/>
</g>
<g id="clust6" class="cluster">
<title>cluster_UtilsModule_imports</title>
<polygon fill="none" stroke="black" points="16,-40.8 16,-92.8 146,-92.8 146,-40.8 16,-40.8"/>
</g>
<!-- RetractedDirective -->
<g id="node1" class="node">
<title>RetractedDirective</title>
<polygon fill="#ffffb3" stroke="black" points="656.72,-84.8 535.28,-84.8 535.28,-48.8 656.72,-48.8 656.72,-84.8"/>
<text text-anchor="middle" x="596" y="-62.6" font-family="Times,serif" font-size="14.00">RetractedDirective</text>
</g>
<!-- UtilsModule -->
<g id="node4" class="node">
<title>UtilsModule</title>
<polygon fill="#8dd3c7" stroke="black" points="405.28,-149.8 402.28,-153.8 381.28,-153.8 378.28,-149.8 318.72,-149.8 318.72,-113.8 405.28,-113.8 405.28,-149.8"/>
<text text-anchor="middle" x="362" y="-127.6" font-family="Times,serif" font-size="14.00">UtilsModule</text>
</g>
<!-- RetractedDirective&#45;&gt;UtilsModule -->
<g id="edge1" class="edge">
<title>RetractedDirective&#45;&gt;UtilsModule</title>
<path fill="none" stroke="black" d="M563.88,-84.82C563.88,-102.17 563.88,-125.8 563.88,-125.8 563.88,-125.8 415.31,-125.8 415.31,-125.8"/>
<polygon fill="black" stroke="black" points="415.31,-122.3 405.31,-125.8 415.31,-129.3 415.31,-122.3"/>
</g>
<!-- UiImageEmphasisDirective -->
<g id="node2" class="node">
<title>UiImageEmphasisDirective</title>
<polygon fill="#ffffb3" stroke="black" points="516.5,-84.8 345.5,-84.8 345.5,-48.8 516.5,-48.8 516.5,-84.8"/>
<text text-anchor="middle" x="431" y="-62.6" font-family="Times,serif" font-size="14.00">UiImageEmphasisDirective</text>
</g>
<!-- UiImageEmphasisDirective&#45;&gt;UtilsModule -->
<g id="edge2" class="edge">
<title>UiImageEmphasisDirective&#45;&gt;UtilsModule</title>
<path fill="none" stroke="black" d="M375.32,-84.91C375.32,-84.91 375.32,-103.79 375.32,-103.79"/>
<polygon fill="black" stroke="black" points="371.82,-103.79 375.32,-113.79 378.82,-103.79 371.82,-103.79"/>
</g>
<!-- UiImageFallbackDirective -->
<g id="node3" class="node">
<title>UiImageFallbackDirective</title>
<polygon fill="#ffffb3" stroke="black" points="327.77,-84.8 162.23,-84.8 162.23,-48.8 327.77,-48.8 327.77,-84.8"/>
<text text-anchor="middle" x="245" y="-62.6" font-family="Times,serif" font-size="14.00">UiImageFallbackDirective</text>
</g>
<!-- UiImageFallbackDirective&#45;&gt;UtilsModule -->
<g id="edge3" class="edge">
<title>UiImageFallbackDirective&#45;&gt;UtilsModule</title>
<path fill="none" stroke="black" d="M323.12,-84.91C323.12,-84.91 323.12,-103.79 323.12,-103.79"/>
<polygon fill="black" stroke="black" points="319.62,-103.79 323.12,-113.79 326.62,-103.79 319.62,-103.79"/>
</g>
<!-- RetractedDirective  -->
<g id="node6" class="node">
<title>RetractedDirective </title>
<polygon fill="#fb8072" stroke="black" points="592.72,-214.8 467.28,-214.8 467.28,-178.8 592.72,-178.8 592.72,-214.8"/>
<text text-anchor="middle" x="530" y="-192.6" font-family="Times,serif" font-size="14.00">RetractedDirective </text>
</g>
<!-- UtilsModule&#45;&gt;RetractedDirective  -->
<g id="edge5" class="edge">
<title>UtilsModule&#45;&gt;RetractedDirective </title>
<path fill="none" stroke="black" stroke-dasharray="5,2" d="M405.31,-137.8C443.15,-137.8 492.07,-137.8 492.07,-137.8 492.07,-137.8 492.07,-168.78 492.07,-168.78"/>
<polygon fill="black" stroke="black" points="488.57,-168.78 492.07,-178.78 495.57,-168.78 488.57,-168.78"/>
</g>
<!-- UiImageEmphasisDirective  -->
<g id="node7" class="node">
<title>UiImageEmphasisDirective </title>
<polygon fill="#fb8072" stroke="black" points="449.5,-214.8 274.5,-214.8 274.5,-178.8 449.5,-178.8 449.5,-214.8"/>
<text text-anchor="middle" x="362" y="-192.6" font-family="Times,serif" font-size="14.00">UiImageEmphasisDirective </text>
</g>
<!-- UtilsModule&#45;&gt;UiImageEmphasisDirective  -->
<g id="edge6" class="edge">
<title>UtilsModule&#45;&gt;UiImageEmphasisDirective </title>
<path fill="none" stroke="black" stroke-dasharray="5,2" d="M362,-149.91C362,-149.91 362,-168.79 362,-168.79"/>
<polygon fill="black" stroke="black" points="358.5,-168.79 362,-178.79 365.5,-168.79 358.5,-168.79"/>
</g>
<!-- UiImageFallbackDirective  -->
<g id="node8" class="node">
<title>UiImageFallbackDirective </title>
<polygon fill="#fb8072" stroke="black" points="256.27,-214.8 87.73,-214.8 87.73,-178.8 256.27,-178.8 256.27,-214.8"/>
<text text-anchor="middle" x="172" y="-192.6" font-family="Times,serif" font-size="14.00">UiImageFallbackDirective </text>
</g>
<!-- UtilsModule&#45;&gt;UiImageFallbackDirective  -->
<g id="edge7" class="edge">
<title>UtilsModule&#45;&gt;UiImageFallbackDirective </title>
<path fill="none" stroke="black" stroke-dasharray="5,2" d="M318.67,-137.8C273.55,-137.8 209.38,-137.8 209.38,-137.8 209.38,-137.8 209.38,-168.78 209.38,-168.78"/>
<polygon fill="black" stroke="black" points="205.88,-168.78 209.38,-178.78 212.88,-168.78 205.88,-168.78"/>
</g>
<!-- NgImportModule -->
<g id="node5" class="node">
<title>NgImportModule</title>
<polygon fill="#8dd3c7" stroke="black" points="138.27,-84.8 135.27,-88.8 114.27,-88.8 111.27,-84.8 23.73,-84.8 23.73,-48.8 138.27,-48.8 138.27,-84.8"/>
<text text-anchor="middle" x="81" y="-62.6" font-family="Times,serif" font-size="14.00">NgImportModule</text>
</g>
<!-- NgImportModule&#45;&gt;UtilsModule -->
<g id="edge4" class="edge">
<title>NgImportModule&#45;&gt;UtilsModule</title>
<path fill="none" stroke="black" d="M113,-84.82C113,-102.17 113,-125.8 113,-125.8 113,-125.8 308.63,-125.8 308.63,-125.8"/>
<polygon fill="black" stroke="black" points="308.63,-129.3 318.63,-125.8 308.63,-122.3 308.63,-129.3"/>
</g>
</g>
</svg>
