<?xml version="1.0" encoding="UTF-8" standalone="no"?>
<!DOCTYPE svg PUBLIC "-//W3C//DTD SVG 1.1//EN"
 "http://www.w3.org/Graphics/SVG/1.1/DTD/svg11.dtd">
<!-- Generated by graphviz version 5.0.0 (20220707.1540)
 -->
<!-- Title: dependencies Pages: 1 -->
<svg width="689pt" height="247pt"
 viewBox="0.00 0.00 689.00 246.80" xmlns="http://www.w3.org/2000/svg" xmlns:xlink="http://www.w3.org/1999/xlink">
<g id="graph0" class="graph" transform="scale(1 1) rotate(0) translate(4 242.8)">
<title>dependencies</title>
<polygon fill="white" stroke="transparent" points="-4,4 -4,-242.8 685,-242.8 685,4 -4,4"/>
<text text-anchor="middle" x="340.5" y="-8.2" font-family="sans-serif" font-size="14.00">dependencies</text>
<g id="clust1" class="cluster">
<title>cluster_UtilsModule</title>
<polygon fill="none" stroke="black" stroke-dasharray="1,5" points="8,-32.8 8,-230.8 673,-230.8 673,-32.8 8,-32.8"/>
</g>
<g id="clust7" class="cluster">
<title>cluster_UtilsModule_exports</title>
<polygon fill="none" stroke="black" points="80,-170.8 80,-222.8 601,-222.8 601,-170.8 80,-170.8"/>
</g>
<g id="clust6" class="cluster">
<title>cluster_UtilsModule_imports</title>
<polygon fill="none" stroke="black" points="535,-40.8 535,-92.8 665,-92.8 665,-40.8 535,-40.8"/>
</g>
<g id="clust2" class="cluster">
<title>cluster_UtilsModule_declarations</title>
<polygon fill="none" stroke="black" points="16,-40.8 16,-92.8 527,-92.8 527,-40.8 16,-40.8"/>
</g>
<!-- RetractedDirective -->
<g id="node1" class="node">
<title>RetractedDirective</title>
<polygon fill="#ffffb3" stroke="black" points="518.72,-84.8 397.28,-84.8 397.28,-48.8 518.72,-48.8 518.72,-84.8"/>
<text text-anchor="middle" x="458" y="-62.6" font-family="Times,serif" font-size="14.00">RetractedDirective</text>
</g>
<!-- UtilsModule -->
<g id="node4" class="node">
<title>UtilsModule</title>
<polygon fill="#8dd3c7" stroke="black" points="405.28,-149.8 402.28,-153.8 381.28,-153.8 378.28,-149.8 318.72,-149.8 318.72,-113.8 405.28,-113.8 405.28,-149.8"/>
<text text-anchor="middle" x="362" y="-127.6" font-family="Times,serif" font-size="14.00">UtilsModule</text>
</g>
<!-- RetractedDirective&#45;&gt;UtilsModule -->
<g id="edge1" class="edge">
<title>RetractedDirective&#45;&gt;UtilsModule</title>
<path fill="none" stroke="black" d="M401.27,-84.91C401.27,-84.91 401.27,-103.79 401.27,-103.79"/>
<polygon fill="black" stroke="black" points="397.77,-103.79 401.27,-113.79 404.77,-103.79 397.77,-103.79"/>
</g>
<!-- UiImageEmphasisDirective -->
<g id="node2" class="node">
<title>UiImageEmphasisDirective</title>
<polygon fill="#ffffb3" stroke="black" points="378.5,-84.8 207.5,-84.8 207.5,-48.8 378.5,-48.8 378.5,-84.8"/>
<text text-anchor="middle" x="293" y="-62.6" font-family="Times,serif" font-size="14.00">UiImageEmphasisDirective</text>
</g>
<!-- UiImageEmphasisDirective&#45;&gt;UtilsModule -->
<g id="edge2" class="edge">
<title>UiImageEmphasisDirective&#45;&gt;UtilsModule</title>
<path fill="none" stroke="black" d="M348.68,-84.91C348.68,-84.91 348.68,-103.79 348.68,-103.79"/>
<polygon fill="black" stroke="black" points="345.18,-103.79 348.68,-113.79 352.18,-103.79 345.18,-103.79"/>
</g>
<!-- UiImageFallbackDirective -->
<g id="node3" class="node">
<title>UiImageFallbackDirective</title>
<polygon fill="#ffffb3" stroke="black" points="189.77,-84.8 24.23,-84.8 24.23,-48.8 189.77,-48.8 189.77,-84.8"/>
<text text-anchor="middle" x="107" y="-62.6" font-family="Times,serif" font-size="14.00">UiImageFallbackDirective</text>
</g>
<!-- UiImageFallbackDirective&#45;&gt;UtilsModule -->
<g id="edge3" class="edge">
<title>UiImageFallbackDirective&#45;&gt;UtilsModule</title>
<path fill="none" stroke="black" d="M138.62,-84.82C138.62,-102.17 138.62,-125.8 138.62,-125.8 138.62,-125.8 308.67,-125.8 308.67,-125.8"/>
<polygon fill="black" stroke="black" points="308.67,-129.3 318.67,-125.8 308.67,-122.3 308.67,-129.3"/>
</g>
<!-- RetractedDirective  -->
<g id="node6" class="node">
<title>RetractedDirective </title>
<polygon fill="#fb8072" stroke="black" points="592.72,-214.8 467.28,-214.8 467.28,-178.8 592.72,-178.8 592.72,-214.8"/>
<text text-anchor="middle" x="530" y="-192.6" font-family="Times,serif" font-size="14.00">RetractedDirective </text>
</g>
<!-- UtilsModule&#45;&gt;RetractedDirective  -->
<g id="edge5" class="edge">
<title>UtilsModule&#45;&gt;RetractedDirective </title>
<path fill="none" stroke="black" stroke-dasharray="5,2" d="M405.3,-137.8C443.49,-137.8 493.12,-137.8 493.12,-137.8 493.12,-137.8 493.12,-168.78 493.12,-168.78"/>
<polygon fill="black" stroke="black" points="489.63,-168.78 493.12,-178.78 496.63,-168.78 489.63,-168.78"/>
</g>
<!-- UiImageEmphasisDirective  -->
<g id="node7" class="node">
<title>UiImageEmphasisDirective </title>
<polygon fill="#fb8072" stroke="black" points="449.5,-214.8 274.5,-214.8 274.5,-178.8 449.5,-178.8 449.5,-214.8"/>
<text text-anchor="middle" x="362" y="-192.6" font-family="Times,serif" font-size="14.00">UiImageEmphasisDirective </text>
</g>
<!-- UtilsModule&#45;&gt;UiImageEmphasisDirective  -->
<g id="edge6" class="edge">
<title>UtilsModule&#45;&gt;UiImageEmphasisDirective </title>
<path fill="none" stroke="black" stroke-dasharray="5,2" d="M362,-149.91C362,-149.91 362,-168.79 362,-168.79"/>
<polygon fill="black" stroke="black" points="358.5,-168.79 362,-178.79 365.5,-168.79 358.5,-168.79"/>
</g>
<!-- UiImageFallbackDirective  -->
<g id="node8" class="node">
<title>UiImageFallbackDirective </title>
<polygon fill="#fb8072" stroke="black" points="256.27,-214.8 87.73,-214.8 87.73,-178.8 256.27,-178.8 256.27,-214.8"/>
<text text-anchor="middle" x="172" y="-192.6" font-family="Times,serif" font-size="14.00">UiImageFallbackDirective </text>
</g>
<!-- UtilsModule&#45;&gt;UiImageFallbackDirective  -->
<g id="edge7" class="edge">
<title>UtilsModule&#45;&gt;UiImageFallbackDirective </title>
<path fill="none" stroke="black" stroke-dasharray="5,2" d="M318.65,-137.8C280.78,-137.8 231.82,-137.8 231.82,-137.8 231.82,-137.8 231.82,-168.78 231.82,-168.78"/>
<polygon fill="black" stroke="black" points="228.32,-168.78 231.82,-178.78 235.32,-168.78 228.32,-168.78"/>
</g>
<!-- NgImportModule -->
<g id="node5" class="node">
<title>NgImportModule</title>
<polygon fill="#8dd3c7" stroke="black" points="657.27,-84.8 654.27,-88.8 633.27,-88.8 630.27,-84.8 542.73,-84.8 542.73,-48.8 657.27,-48.8 657.27,-84.8"/>
<text text-anchor="middle" x="600" y="-62.6" font-family="Times,serif" font-size="14.00">NgImportModule</text>
</g>
<!-- NgImportModule&#45;&gt;UtilsModule -->
<g id="edge4" class="edge">
<title>NgImportModule&#45;&gt;UtilsModule</title>
<path fill="none" stroke="black" d="M567.61,-84.82C567.61,-102.17 567.61,-125.8 567.61,-125.8 567.61,-125.8 415.35,-125.8 415.35,-125.8"/>
<polygon fill="black" stroke="black" points="415.35,-122.3 405.35,-125.8 415.35,-129.3 415.35,-122.3"/>
</g>
</g>
</svg>
