<?xml version="1.0" encoding="UTF-8" standalone="no"?>
<!DOCTYPE svg PUBLIC "-//W3C//DTD SVG 1.1//EN"
 "http://www.w3.org/Graphics/SVG/1.1/DTD/svg11.dtd">
<!-- Generated by graphviz version 5.0.0 (20220707.1540)
 -->
<!-- Title: dependencies Pages: 1 -->
<svg width="504pt" height="174pt"
 viewBox="0.00 0.00 504.00 173.80" xmlns="http://www.w3.org/2000/svg" xmlns:xlink="http://www.w3.org/1999/xlink">
<g id="graph0" class="graph" transform="scale(1 1) rotate(0) translate(4 169.8)">
<title>dependencies</title>
<polygon fill="white" stroke="transparent" points="-4,4 -4,-169.8 500,-169.8 500,4 -4,4"/>
<text text-anchor="middle" x="248" y="-8.2" font-family="sans-serif" font-size="14.00">dependencies</text>
<g id="clust1" class="cluster">
<title>cluster_PageLoginModule</title>
<polygon fill="none" stroke="black" stroke-dasharray="1,5" points="8,-32.8 8,-157.8 488,-157.8 488,-32.8 8,-32.8"/>
</g>
<g id="clust2" class="cluster">
<title>cluster_PageLoginModule_declarations</title>
<polygon fill="none" stroke="black" points="322,-40.8 322,-92.8 480,-92.8 480,-40.8 322,-40.8"/>
</g>
<g id="clust4" class="cluster">
<title>cluster_PageLoginModule_imports</title>
<polygon fill="none" stroke="black" points="16,-40.8 16,-92.8 314,-92.8 314,-40.8 16,-40.8"/>
</g>
<!-- PageLoginComponent -->
<g id="node1" class="node">
<title>PageLoginComponent</title>
<polygon fill="#ffffb3" stroke="black" points="471.99,-84.8 330.01,-84.8 330.01,-48.8 471.99,-48.8 471.99,-84.8"/>
<text text-anchor="middle" x="401" y="-62.6" font-family="Times,serif" font-size="14.00">PageLoginComponent</text>
</g>
<!-- PageLoginModule -->
<g id="node2" class="node">
<title>PageLoginModule</title>
<polygon fill="#8dd3c7" stroke="black" points="283.21,-149.8 280.21,-153.8 259.21,-153.8 256.21,-149.8 162.79,-149.8 162.79,-113.8 283.21,-113.8 283.21,-149.8"/>
<text text-anchor="middle" x="223" y="-127.6" font-family="Times,serif" font-size="14.00">PageLoginModule</text>
</g>
<!-- PageLoginComponent&#45;&gt;PageLoginModule -->
<g id="edge1" class="edge">
<title>PageLoginComponent&#45;&gt;PageLoginModule</title>
<path fill="none" stroke="black" d="M401,-84.91C401,-104.14 401,-131.8 401,-131.8 401,-131.8 293.26,-131.8 293.26,-131.8"/>
<polygon fill="black" stroke="black" points="293.26,-128.3 283.26,-131.8 293.26,-135.3 293.26,-128.3"/>
</g>
<!-- PageLoginRoutingModule -->
<g id="node3" class="node">
<title>PageLoginRoutingModule</title>
<polygon fill="#8dd3c7" stroke="black" points="305.82,-84.8 302.82,-88.8 281.82,-88.8 278.82,-84.8 140.18,-84.8 140.18,-48.8 305.82,-48.8 305.82,-84.8"/>
<text text-anchor="middle" x="223" y="-62.6" font-family="Times,serif" font-size="14.00">PageLoginRoutingModule</text>
</g>
<!-- PageLoginRoutingModule&#45;&gt;PageLoginModule -->
<g id="edge2" class="edge">
<title>PageLoginRoutingModule&#45;&gt;PageLoginModule</title>
<path fill="none" stroke="black" d="M223,-84.91C223,-84.91 223,-103.79 223,-103.79"/>
<polygon fill="black" stroke="black" points="219.5,-103.79 223,-113.79 226.5,-103.79 219.5,-103.79"/>
</g>
<!-- SharedModule -->
<g id="node4" class="node">
<title>SharedModule</title>
<polygon fill="#8dd3c7" stroke="black" points="122.43,-84.8 119.43,-88.8 98.43,-88.8 95.43,-84.8 23.57,-84.8 23.57,-48.8 122.43,-48.8 122.43,-84.8"/>
<text text-anchor="middle" x="73" y="-62.6" font-family="Times,serif" font-size="14.00">SharedModule</text>
</g>
<!-- SharedModule&#45;&gt;PageLoginModule -->
<g id="edge3" class="edge">
<title>SharedModule&#45;&gt;PageLoginModule</title>
<path fill="none" stroke="black" d="M73,-84.91C73,-104.14 73,-131.8 73,-131.8 73,-131.8 152.85,-131.8 152.85,-131.8"/>
<polygon fill="black" stroke="black" points="152.85,-135.3 162.85,-131.8 152.85,-128.3 152.85,-135.3"/>
</g>
</g>
</svg>
