<?xml version="1.0" encoding="UTF-8" standalone="no"?>
<!DOCTYPE svg PUBLIC "-//W3C//DTD SVG 1.1//EN"
 "http://www.w3.org/Graphics/SVG/1.1/DTD/svg11.dtd">
<!-- Generated by graphviz version 5.0.0 (20220707.1540)
 -->
<!-- Title: dependencies Pages: 1 -->
<svg width="504pt" height="174pt"
 viewBox="0.00 0.00 504.00 173.80" xmlns="http://www.w3.org/2000/svg" xmlns:xlink="http://www.w3.org/1999/xlink">
<g id="graph0" class="graph" transform="scale(1 1) rotate(0) translate(4 169.8)">
<title>dependencies</title>
<polygon fill="white" stroke="transparent" points="-4,4 -4,-169.8 500,-169.8 500,4 -4,4"/>
<text text-anchor="middle" x="248" y="-8.2" font-family="sans-serif" font-size="14.00">dependencies</text>
<g id="clust1" class="cluster">
<title>cluster_PageLoginModule</title>
<polygon fill="none" stroke="black" stroke-dasharray="1,5" points="8,-32.8 8,-157.8 488,-157.8 488,-32.8 8,-32.8"/>
</g>
<g id="clust4" class="cluster">
<title>cluster_PageLoginModule_imports</title>
<polygon fill="none" stroke="black" points="182,-40.8 182,-92.8 480,-92.8 480,-40.8 182,-40.8"/>
</g>
<g id="clust2" class="cluster">
<title>cluster_PageLoginModule_declarations</title>
<polygon fill="none" stroke="black" points="16,-40.8 16,-92.8 174,-92.8 174,-40.8 16,-40.8"/>
</g>
<!-- PageLoginComponent -->
<g id="node1" class="node">
<title>PageLoginComponent</title>
<polygon fill="#ffffb3" stroke="black" points="165.99,-84.8 24.01,-84.8 24.01,-48.8 165.99,-48.8 165.99,-84.8"/>
<text text-anchor="middle" x="95" y="-62.6" font-family="Times,serif" font-size="14.00">PageLoginComponent</text>
</g>
<!-- PageLoginModule -->
<g id="node2" class="node">
<title>PageLoginModule</title>
<polygon fill="#8dd3c7" stroke="black" points="299.21,-149.8 296.21,-153.8 275.21,-153.8 272.21,-149.8 178.79,-149.8 178.79,-113.8 299.21,-113.8 299.21,-149.8"/>
<text text-anchor="middle" x="239" y="-127.6" font-family="Times,serif" font-size="14.00">PageLoginModule</text>
</g>
<!-- PageLoginComponent&#45;&gt;PageLoginModule -->
<g id="edge1" class="edge">
<title>PageLoginComponent&#45;&gt;PageLoginModule</title>
<path fill="none" stroke="black" d="M166.26,-66.8C176.88,-66.8 184.34,-66.8 184.34,-66.8 184.34,-66.8 184.34,-103.69 184.34,-103.69"/>
<polygon fill="black" stroke="black" points="180.84,-103.69 184.34,-113.69 187.84,-103.69 180.84,-103.69"/>
</g>
<!-- PageLoginRoutingModule -->
<g id="node3" class="node">
<title>PageLoginRoutingModule</title>
<polygon fill="#8dd3c7" stroke="black" points="471.82,-84.8 468.82,-88.8 447.82,-88.8 444.82,-84.8 306.18,-84.8 306.18,-48.8 471.82,-48.8 471.82,-84.8"/>
<text text-anchor="middle" x="389" y="-62.6" font-family="Times,serif" font-size="14.00">PageLoginRoutingModule</text>
</g>
<!-- PageLoginRoutingModule&#45;&gt;PageLoginModule -->
<g id="edge2" class="edge">
<title>PageLoginRoutingModule&#45;&gt;PageLoginModule</title>
<path fill="none" stroke="black" d="M306.12,-66.8C298.55,-66.8 293.66,-66.8 293.66,-66.8 293.66,-66.8 293.66,-103.69 293.66,-103.69"/>
<polygon fill="black" stroke="black" points="290.16,-103.69 293.66,-113.69 297.16,-103.69 290.16,-103.69"/>
</g>
<!-- SharedModule -->
<g id="node4" class="node">
<title>SharedModule</title>
<polygon fill="#8dd3c7" stroke="black" points="288.43,-84.8 285.43,-88.8 264.43,-88.8 261.43,-84.8 189.57,-84.8 189.57,-48.8 288.43,-48.8 288.43,-84.8"/>
<text text-anchor="middle" x="239" y="-62.6" font-family="Times,serif" font-size="14.00">SharedModule</text>
</g>
<!-- SharedModule&#45;&gt;PageLoginModule -->
<g id="edge3" class="edge">
<title>SharedModule&#45;&gt;PageLoginModule</title>
<path fill="none" stroke="black" d="M239,-84.91C239,-84.91 239,-103.79 239,-103.79"/>
<polygon fill="black" stroke="black" points="235.5,-103.79 239,-113.79 242.5,-103.79 235.5,-103.79"/>
</g>
</g>
</svg>
