<?xml version="1.0" encoding="UTF-8" standalone="no"?>
<!DOCTYPE svg PUBLIC "-//W3C//DTD SVG 1.1//EN"
 "http://www.w3.org/Graphics/SVG/1.1/DTD/svg11.dtd">
<!-- Generated by graphviz version 5.0.0 (20220707.1540)
 -->
<!-- Title: dependencies Pages: 1 -->
<svg width="504pt" height="174pt"
 viewBox="0.00 0.00 504.00 173.80" xmlns="http://www.w3.org/2000/svg" xmlns:xlink="http://www.w3.org/1999/xlink">
<g id="graph0" class="graph" transform="scale(1 1) rotate(0) translate(4 169.8)">
<title>dependencies</title>
<polygon fill="white" stroke="transparent" points="-4,4 -4,-169.8 500,-169.8 500,4 -4,4"/>
<text text-anchor="middle" x="248" y="-8.2" font-family="sans-serif" font-size="14.00">dependencies</text>
<g id="clust1" class="cluster">
<title>cluster_PageHomeModule</title>
<polygon fill="none" stroke="black" stroke-dasharray="1,5" points="8,-32.8 8,-157.8 488,-157.8 488,-32.8 8,-32.8"/>
</g>
<g id="clust4" class="cluster">
<title>cluster_PageHomeModule_imports</title>
<polygon fill="none" stroke="black" points="182,-40.8 182,-92.8 480,-92.8 480,-40.8 182,-40.8"/>
</g>
<g id="clust2" class="cluster">
<title>cluster_PageHomeModule_declarations</title>
<polygon fill="none" stroke="black" points="16,-40.8 16,-92.8 174,-92.8 174,-40.8 16,-40.8"/>
</g>
<!-- PageHomeComponent -->
<g id="node1" class="node">
<title>PageHomeComponent</title>
<polygon fill="#ffffb3" stroke="black" points="166.26,-84.8 23.74,-84.8 23.74,-48.8 166.26,-48.8 166.26,-84.8"/>
<text text-anchor="middle" x="95" y="-62.6" font-family="Times,serif" font-size="14.00">PageHomeComponent</text>
</g>
<!-- PageHomeModule -->
<g id="node2" class="node">
<title>PageHomeModule</title>
<polygon fill="#8dd3c7" stroke="black" points="299.48,-149.8 296.48,-153.8 275.48,-153.8 272.48,-149.8 178.52,-149.8 178.52,-113.8 299.48,-113.8 299.48,-149.8"/>
<text text-anchor="middle" x="239" y="-127.6" font-family="Times,serif" font-size="14.00">PageHomeModule</text>
</g>
<!-- PageHomeComponent&#45;&gt;PageHomeModule -->
<g id="edge1" class="edge">
<title>PageHomeComponent&#45;&gt;PageHomeModule</title>
<path fill="none" stroke="black" d="M166.54,-66.8C176.9,-66.8 184.15,-66.8 184.15,-66.8 184.15,-66.8 184.15,-103.69 184.15,-103.69"/>
<polygon fill="black" stroke="black" points="180.65,-103.69 184.15,-113.69 187.65,-103.69 180.65,-103.69"/>
</g>
<!-- PageHomeRoutingModule -->
<g id="node3" class="node">
<title>PageHomeRoutingModule</title>
<polygon fill="#8dd3c7" stroke="black" points="472.1,-84.8 469.1,-88.8 448.1,-88.8 445.1,-84.8 305.9,-84.8 305.9,-48.8 472.1,-48.8 472.1,-84.8"/>
<text text-anchor="middle" x="389" y="-62.6" font-family="Times,serif" font-size="14.00">PageHomeRoutingModule</text>
</g>
<!-- PageHomeRoutingModule&#45;&gt;PageHomeModule -->
<g id="edge2" class="edge">
<title>PageHomeRoutingModule&#45;&gt;PageHomeModule</title>
<path fill="none" stroke="black" d="M305.9,-66.8C298.57,-66.8 293.85,-66.8 293.85,-66.8 293.85,-66.8 293.85,-103.69 293.85,-103.69"/>
<polygon fill="black" stroke="black" points="290.35,-103.69 293.85,-113.69 297.35,-103.69 290.35,-103.69"/>
</g>
<!-- SharedModule -->
<g id="node4" class="node">
<title>SharedModule</title>
<polygon fill="#8dd3c7" stroke="black" points="288.43,-84.8 285.43,-88.8 264.43,-88.8 261.43,-84.8 189.57,-84.8 189.57,-48.8 288.43,-48.8 288.43,-84.8"/>
<text text-anchor="middle" x="239" y="-62.6" font-family="Times,serif" font-size="14.00">SharedModule</text>
</g>
<!-- SharedModule&#45;&gt;PageHomeModule -->
<g id="edge3" class="edge">
<title>SharedModule&#45;&gt;PageHomeModule</title>
<path fill="none" stroke="black" d="M239,-84.91C239,-84.91 239,-103.79 239,-103.79"/>
<polygon fill="black" stroke="black" points="235.5,-103.79 239,-113.79 242.5,-103.79 235.5,-103.79"/>
</g>
</g>
</svg>
