<?xml version="1.0" encoding="UTF-8" standalone="no"?>
<!DOCTYPE svg PUBLIC "-//W3C//DTD SVG 1.1//EN"
 "http://www.w3.org/Graphics/SVG/1.1/DTD/svg11.dtd">
<!-- Generated by graphviz version 5.0.0 (20220707.1540)
 -->
<!-- Title: dependencies Pages: 1 -->
<svg width="504pt" height="174pt"
 viewBox="0.00 0.00 504.00 173.80" xmlns="http://www.w3.org/2000/svg" xmlns:xlink="http://www.w3.org/1999/xlink">
<g id="graph0" class="graph" transform="scale(1 1) rotate(0) translate(4 169.8)">
<title>dependencies</title>
<polygon fill="white" stroke="transparent" points="-4,4 -4,-169.8 500,-169.8 500,4 -4,4"/>
<text text-anchor="middle" x="248" y="-8.2" font-family="sans-serif" font-size="14.00">dependencies</text>
<g id="clust1" class="cluster">
<title>cluster_PageHomeModule</title>
<polygon fill="none" stroke="black" stroke-dasharray="1,5" points="8,-32.8 8,-157.8 488,-157.8 488,-32.8 8,-32.8"/>
</g>
<g id="clust2" class="cluster">
<title>cluster_PageHomeModule_declarations</title>
<polygon fill="none" stroke="black" points="322,-40.8 322,-92.8 480,-92.8 480,-40.8 322,-40.8"/>
</g>
<g id="clust4" class="cluster">
<title>cluster_PageHomeModule_imports</title>
<polygon fill="none" stroke="black" points="16,-40.8 16,-92.8 314,-92.8 314,-40.8 16,-40.8"/>
</g>
<!-- PageHomeComponent -->
<g id="node1" class="node">
<title>PageHomeComponent</title>
<polygon fill="#ffffb3" stroke="black" points="472.26,-84.8 329.74,-84.8 329.74,-48.8 472.26,-48.8 472.26,-84.8"/>
<text text-anchor="middle" x="401" y="-62.6" font-family="Times,serif" font-size="14.00">PageHomeComponent</text>
</g>
<!-- PageHomeModule -->
<g id="node2" class="node">
<title>PageHomeModule</title>
<polygon fill="#8dd3c7" stroke="black" points="283.48,-149.8 280.48,-153.8 259.48,-153.8 256.48,-149.8 162.52,-149.8 162.52,-113.8 283.48,-113.8 283.48,-149.8"/>
<text text-anchor="middle" x="223" y="-127.6" font-family="Times,serif" font-size="14.00">PageHomeModule</text>
</g>
<!-- PageHomeComponent&#45;&gt;PageHomeModule -->
<g id="edge1" class="edge">
<title>PageHomeComponent&#45;&gt;PageHomeModule</title>
<path fill="none" stroke="black" d="M401,-84.91C401,-104.14 401,-131.8 401,-131.8 401,-131.8 293.76,-131.8 293.76,-131.8"/>
<polygon fill="black" stroke="black" points="293.76,-128.3 283.76,-131.8 293.76,-135.3 293.76,-128.3"/>
</g>
<!-- PageHomeRoutingModule -->
<g id="node3" class="node">
<title>PageHomeRoutingModule</title>
<polygon fill="#8dd3c7" stroke="black" points="306.1,-84.8 303.1,-88.8 282.1,-88.8 279.1,-84.8 139.9,-84.8 139.9,-48.8 306.1,-48.8 306.1,-84.8"/>
<text text-anchor="middle" x="223" y="-62.6" font-family="Times,serif" font-size="14.00">PageHomeRoutingModule</text>
</g>
<!-- PageHomeRoutingModule&#45;&gt;PageHomeModule -->
<g id="edge2" class="edge">
<title>PageHomeRoutingModule&#45;&gt;PageHomeModule</title>
<path fill="none" stroke="black" d="M223,-84.91C223,-84.91 223,-103.79 223,-103.79"/>
<polygon fill="black" stroke="black" points="219.5,-103.79 223,-113.79 226.5,-103.79 219.5,-103.79"/>
</g>
<!-- SharedModule -->
<g id="node4" class="node">
<title>SharedModule</title>
<polygon fill="#8dd3c7" stroke="black" points="122.43,-84.8 119.43,-88.8 98.43,-88.8 95.43,-84.8 23.57,-84.8 23.57,-48.8 122.43,-48.8 122.43,-84.8"/>
<text text-anchor="middle" x="73" y="-62.6" font-family="Times,serif" font-size="14.00">SharedModule</text>
</g>
<!-- SharedModule&#45;&gt;PageHomeModule -->
<g id="edge3" class="edge">
<title>SharedModule&#45;&gt;PageHomeModule</title>
<path fill="none" stroke="black" d="M73,-84.91C73,-104.14 73,-131.8 73,-131.8 73,-131.8 152.42,-131.8 152.42,-131.8"/>
<polygon fill="black" stroke="black" points="152.42,-135.3 162.42,-131.8 152.42,-128.3 152.42,-135.3"/>
</g>
</g>
</svg>
