<?xml version="1.0" encoding="UTF-8" standalone="no"?>
<!DOCTYPE svg PUBLIC "-//W3C//DTD SVG 1.1//EN"
 "http://www.w3.org/Graphics/SVG/1.1/DTD/svg11.dtd">
<!-- Generated by graphviz version 5.0.0 (20220707.1540)
 -->
<!-- Title: dependencies Pages: 1 -->
<svg width="544pt" height="174pt"
 viewBox="0.00 0.00 544.00 173.80" xmlns="http://www.w3.org/2000/svg" xmlns:xlink="http://www.w3.org/1999/xlink">
<g id="graph0" class="graph" transform="scale(1 1) rotate(0) translate(4 169.8)">
<title>dependencies</title>
<polygon fill="white" stroke="transparent" points="-4,4 -4,-169.8 540,-169.8 540,4 -4,4"/>
<text text-anchor="middle" x="268" y="-8.2" font-family="sans-serif" font-size="14.00">dependencies</text>
<g id="clust1" class="cluster">
<title>cluster_PageMessagesModule</title>
<polygon fill="none" stroke="black" stroke-dasharray="1,5" points="8,-32.8 8,-157.8 528,-157.8 528,-32.8 8,-32.8"/>
</g>
<g id="clust2" class="cluster">
<title>cluster_PageMessagesModule_declarations</title>
<polygon fill="none" stroke="black" points="342,-40.8 342,-92.8 520,-92.8 520,-40.8 342,-40.8"/>
</g>
<g id="clust4" class="cluster">
<title>cluster_PageMessagesModule_imports</title>
<polygon fill="none" stroke="black" points="16,-40.8 16,-92.8 334,-92.8 334,-40.8 16,-40.8"/>
</g>
<!-- PageMessagesComponent -->
<g id="node1" class="node">
<title>PageMessagesComponent</title>
<polygon fill="#ffffb3" stroke="black" points="512.48,-84.8 349.52,-84.8 349.52,-48.8 512.48,-48.8 512.48,-84.8"/>
<text text-anchor="middle" x="431" y="-62.6" font-family="Times,serif" font-size="14.00">PageMessagesComponent</text>
</g>
<!-- PageMessagesModule -->
<g id="node2" class="node">
<title>PageMessagesModule</title>
<polygon fill="#8dd3c7" stroke="black" points="303.7,-149.8 300.7,-153.8 279.7,-153.8 276.7,-149.8 162.3,-149.8 162.3,-113.8 303.7,-113.8 303.7,-149.8"/>
<text text-anchor="middle" x="233" y="-127.6" font-family="Times,serif" font-size="14.00">PageMessagesModule</text>
</g>
<!-- PageMessagesComponent&#45;&gt;PageMessagesModule -->
<g id="edge1" class="edge">
<title>PageMessagesComponent&#45;&gt;PageMessagesModule</title>
<path fill="none" stroke="black" d="M431,-84.91C431,-104.14 431,-131.8 431,-131.8 431,-131.8 313.64,-131.8 313.64,-131.8"/>
<polygon fill="black" stroke="black" points="313.64,-128.3 303.64,-131.8 313.64,-135.3 313.64,-128.3"/>
</g>
<!-- PageMessagesRoutingModule -->
<g id="node3" class="node">
<title>PageMessagesRoutingModule</title>
<polygon fill="#8dd3c7" stroke="black" points="326.32,-84.8 323.32,-88.8 302.32,-88.8 299.32,-84.8 139.68,-84.8 139.68,-48.8 326.32,-48.8 326.32,-84.8"/>
<text text-anchor="middle" x="233" y="-62.6" font-family="Times,serif" font-size="14.00">PageMessagesRoutingModule</text>
</g>
<!-- PageMessagesRoutingModule&#45;&gt;PageMessagesModule -->
<g id="edge2" class="edge">
<title>PageMessagesRoutingModule&#45;&gt;PageMessagesModule</title>
<path fill="none" stroke="black" d="M233,-84.91C233,-84.91 233,-103.79 233,-103.79"/>
<polygon fill="black" stroke="black" points="229.5,-103.79 233,-113.79 236.5,-103.79 229.5,-103.79"/>
</g>
<!-- SharedModule -->
<g id="node4" class="node">
<title>SharedModule</title>
<polygon fill="#8dd3c7" stroke="black" points="122.43,-84.8 119.43,-88.8 98.43,-88.8 95.43,-84.8 23.57,-84.8 23.57,-48.8 122.43,-48.8 122.43,-84.8"/>
<text text-anchor="middle" x="73" y="-62.6" font-family="Times,serif" font-size="14.00">SharedModule</text>
</g>
<!-- SharedModule&#45;&gt;PageMessagesModule -->
<g id="edge3" class="edge">
<title>SharedModule&#45;&gt;PageMessagesModule</title>
<path fill="none" stroke="black" d="M73,-84.91C73,-104.14 73,-131.8 73,-131.8 73,-131.8 152.36,-131.8 152.36,-131.8"/>
<polygon fill="black" stroke="black" points="152.36,-135.3 162.36,-131.8 152.36,-128.3 152.36,-135.3"/>
</g>
</g>
</svg>
