<?xml version="1.0" encoding="UTF-8" standalone="no"?>
<!DOCTYPE svg PUBLIC "-//W3C//DTD SVG 1.1//EN"
 "http://www.w3.org/Graphics/SVG/1.1/DTD/svg11.dtd">
<!-- Generated by graphviz version 5.0.0 (20220707.1540)
 -->
<!-- Title: dependencies Pages: 1 -->
<svg width="2423pt" height="323pt"
 viewBox="0.00 0.00 2423.00 322.80" xmlns="http://www.w3.org/2000/svg" xmlns:xlink="http://www.w3.org/1999/xlink">
<g id="graph0" class="graph" transform="scale(1 1) rotate(0) translate(4 318.8)">
<title>dependencies</title>
<polygon fill="white" stroke="transparent" points="-4,4 -4,-318.8 2419,-318.8 2419,4 -4,4"/>
<text text-anchor="middle" x="1207.5" y="-8.2" font-family="sans-serif" font-size="14.00">dependencies</text>
<g id="clust1" class="cluster">
<title>cluster_AppModule</title>
<polygon fill="none" stroke="black" stroke-dasharray="1,5" points="114,-108.8 114,-306.8 509,-306.8 509,-108.8 114,-108.8"/>
</g>
<g id="clust2" class="cluster">
<title>cluster_AppModule_declarations</title>
<polygon fill="none" stroke="black" points="379,-116.8 379,-168.8 501,-168.8 501,-116.8 379,-116.8"/>
</g>
<g id="clust4" class="cluster">
<title>cluster_AppModule_imports</title>
<polygon fill="none" stroke="black" points="122,-116.8 122,-168.8 371,-168.8 371,-116.8 122,-116.8"/>
</g>
<g id="clust6" class="cluster">
<title>cluster_AppModule_bootstrap</title>
<polygon fill="none" stroke="black" points="237,-246.8 237,-298.8 361,-298.8 361,-246.8 237,-246.8"/>
</g>
<g id="clust14" class="cluster">
<title>cluster_CoreModule</title>
<polygon fill="none" stroke="black" stroke-dasharray="1,5" points="8,-32.8 8,-100.8 324,-100.8 324,-32.8 8,-32.8"/>
</g>
<g id="clust19" class="cluster">
<title>cluster_CoreModule_providers</title>
<polygon fill="none" stroke="black" points="16,-40.8 16,-92.8 316,-92.8 316,-40.8 16,-40.8"/>
</g>
<g id="clust26" class="cluster">
<title>cluster_PageHomeModule</title>
<polygon fill="none" stroke="black" stroke-dasharray="1,5" points="517,-32.8 517,-168.8 997,-168.8 997,-32.8 517,-32.8"/>
</g>
<g id="clust27" class="cluster">
<title>cluster_PageHomeModule_declarations</title>
<polygon fill="none" stroke="black" points="525,-40.8 525,-92.8 683,-92.8 683,-40.8 525,-40.8"/>
</g>
<g id="clust29" class="cluster">
<title>cluster_PageHomeModule_imports</title>
<polygon fill="none" stroke="black" points="691,-40.8 691,-92.8 989,-92.8 989,-40.8 691,-40.8"/>
</g>
<g id="clust39" class="cluster">
<title>cluster_PageLoginModule</title>
<polygon fill="none" stroke="black" stroke-dasharray="1,5" points="1367,-32.8 1367,-168.8 1731,-168.8 1731,-32.8 1367,-32.8"/>
</g>
<g id="clust40" class="cluster">
<title>cluster_PageLoginModule_declarations</title>
<polygon fill="none" stroke="black" points="1565,-40.8 1565,-92.8 1723,-92.8 1723,-40.8 1565,-40.8"/>
</g>
<g id="clust42" class="cluster">
<title>cluster_PageLoginModule_imports</title>
<polygon fill="none" stroke="black" points="1375,-40.8 1375,-92.8 1557,-92.8 1557,-40.8 1375,-40.8"/>
</g>
<g id="clust52" class="cluster">
<title>cluster_PageMessagesModule</title>
<polygon fill="none" stroke="black" stroke-dasharray="1,5" points="1739,-32.8 1739,-168.8 2143,-168.8 2143,-32.8 1739,-32.8"/>
</g>
<g id="clust53" class="cluster">
<title>cluster_PageMessagesModule_declarations</title>
<polygon fill="none" stroke="black" points="1957,-40.8 1957,-92.8 2135,-92.8 2135,-40.8 1957,-40.8"/>
</g>
<g id="clust55" class="cluster">
<title>cluster_PageMessagesModule_imports</title>
<polygon fill="none" stroke="black" points="1747,-40.8 1747,-92.8 1949,-92.8 1949,-40.8 1747,-40.8"/>
</g>
<g id="clust71" class="cluster">
<title>cluster_SharedModule</title>
<polygon fill="none" stroke="black" stroke-dasharray="1,5" points="1005,-108.8 1005,-176.8 1359,-176.8 1359,-108.8 1005,-108.8"/>
</g>
<g id="clust74" class="cluster">
<title>cluster_SharedModule_exports</title>
<polygon fill="none" stroke="black" points="1013,-116.8 1013,-168.8 1351,-168.8 1351,-116.8 1013,-116.8"/>
</g>
<g id="clust77" class="cluster">
<title>cluster_UiModule</title>
<polygon fill="none" stroke="black" stroke-dasharray="1,5" points="2151,-32.8 2151,-168.8 2297,-168.8 2297,-32.8 2151,-32.8"/>
</g>
<g id="clust79" class="cluster">
<title>cluster_UiModule_imports</title>
<polygon fill="none" stroke="black" points="2159,-40.8 2159,-92.8 2289,-92.8 2289,-40.8 2159,-40.8"/>
</g>
<g id="clust83" class="cluster">
<title>cluster_UtilsModule</title>
<polygon fill="none" stroke="black" stroke-dasharray="1,5" points="2305,-116.8 2305,-168.8 2407,-168.8 2407,-116.8 2305,-116.8"/>
</g>
<!-- AppComponent -->
<g id="node1" class="node">
<title>AppComponent</title>
<polygon fill="#ffffb3" stroke="black" points="492.94,-160.8 387.06,-160.8 387.06,-124.8 492.94,-124.8 492.94,-160.8"/>
<text text-anchor="middle" x="440" y="-138.6" font-family="Times,serif" font-size="14.00">AppComponent</text>
</g>
<!-- AppModule -->
<g id="node2" class="node">
<title>AppModule</title>
<polygon fill="#8dd3c7" stroke="black" points="340.66,-225.8 337.66,-229.8 316.66,-229.8 313.66,-225.8 257.34,-225.8 257.34,-189.8 340.66,-189.8 340.66,-225.8"/>
<text text-anchor="middle" x="299" y="-203.6" font-family="Times,serif" font-size="14.00">AppModule</text>
</g>
<!-- AppComponent&#45;&gt;AppModule -->
<g id="edge1" class="edge">
<title>AppComponent&#45;&gt;AppModule</title>
<path fill="none" stroke="black" d="M440,-160.91C440,-180.14 440,-207.8 440,-207.8 440,-207.8 350.92,-207.8 350.92,-207.8"/>
<polygon fill="black" stroke="black" points="350.92,-204.3 340.92,-207.8 350.92,-211.3 350.92,-204.3"/>
</g>
<!-- AppComponent  -->
<g id="node5" class="node">
<title>AppComponent </title>
<polygon fill="#80b1d3" stroke="black" points="353.44,-290.8 244.56,-290.8 244.56,-254.8 353.44,-254.8 353.44,-290.8"/>
<text text-anchor="middle" x="299" y="-268.6" font-family="Times,serif" font-size="14.00">AppComponent </text>
</g>
<!-- AppModule&#45;&gt;AppComponent  -->
<g id="edge4" class="edge">
<title>AppModule&#45;&gt;AppComponent </title>
<path fill="none" stroke="black" stroke-dasharray="1,5" d="M299,-225.91C299,-225.91 299,-244.79 299,-244.79"/>
<polygon fill="black" stroke="black" points="295.5,-244.79 299,-254.79 302.5,-244.79 295.5,-244.79"/>
</g>
<!-- AppRoutingModule -->
<g id="node3" class="node">
<title>AppRoutingModule</title>
<polygon fill="#8dd3c7" stroke="black" points="363.28,-160.8 360.28,-164.8 339.28,-164.8 336.28,-160.8 234.72,-160.8 234.72,-124.8 363.28,-124.8 363.28,-160.8"/>
<text text-anchor="middle" x="299" y="-138.6" font-family="Times,serif" font-size="14.00">AppRoutingModule</text>
</g>
<!-- AppRoutingModule&#45;&gt;AppModule -->
<g id="edge2" class="edge">
<title>AppRoutingModule&#45;&gt;AppModule</title>
<path fill="none" stroke="black" d="M299,-160.91C299,-160.91 299,-179.79 299,-179.79"/>
<polygon fill="black" stroke="black" points="295.5,-179.79 299,-189.79 302.5,-179.79 295.5,-179.79"/>
</g>
<!-- CoreModule -->
<g id="node4" class="node">
<title>CoreModule</title>
<polygon fill="#8dd3c7" stroke="black" points="216.27,-160.8 213.27,-164.8 192.27,-164.8 189.27,-160.8 129.73,-160.8 129.73,-124.8 216.27,-124.8 216.27,-160.8"/>
<text text-anchor="middle" x="173" y="-138.6" font-family="Times,serif" font-size="14.00">CoreModule</text>
</g>
<!-- CoreModule&#45;&gt;AppModule -->
<g id="edge3" class="edge">
<title>CoreModule&#45;&gt;AppModule</title>
<path fill="none" stroke="black" d="M173,-160.91C173,-180.14 173,-207.8 173,-207.8 173,-207.8 247.04,-207.8 247.04,-207.8"/>
<polygon fill="black" stroke="black" points="247.04,-211.3 257.04,-207.8 247.04,-204.3 247.04,-211.3"/>
</g>
<!-- AuthService -->
<g id="node6" class="node">
<title>AuthService</title>
<ellipse fill="#fdb462" stroke="black" cx="249" cy="-66.8" rx="59.11" ry="18"/>
<text text-anchor="middle" x="249" y="-62.6" font-family="Times,serif" font-size="14.00">AuthService</text>
</g>
<!-- AuthService&#45;&gt;CoreModule -->
<g id="edge5" class="edge">
<title>AuthService&#45;&gt;CoreModule</title>
<path fill="none" stroke="black" d="M203.04,-78.34C203.04,-78.34 203.04,-114.63 203.04,-114.63"/>
<polygon fill="black" stroke="black" points="199.54,-114.63 203.04,-124.63 206.54,-114.63 199.54,-114.63"/>
</g>
<!-- MessageService -->
<g id="node7" class="node">
<title>MessageService</title>
<ellipse fill="#fdb462" stroke="black" cx="98" cy="-66.8" rx="73.57" ry="18"/>
<text text-anchor="middle" x="98" y="-62.6" font-family="Times,serif" font-size="14.00">MessageService</text>
</g>
<!-- MessageService&#45;&gt;CoreModule -->
<g id="edge6" class="edge">
<title>MessageService&#45;&gt;CoreModule</title>
<path fill="none" stroke="black" d="M150.7,-79.69C150.7,-79.69 150.7,-114.71 150.7,-114.71"/>
<polygon fill="black" stroke="black" points="147.2,-114.71 150.7,-124.71 154.2,-114.71 147.2,-114.71"/>
</g>
<!-- PageHomeComponent -->
<g id="node8" class="node">
<title>PageHomeComponent</title>
<polygon fill="#ffffb3" stroke="black" points="675.26,-84.8 532.74,-84.8 532.74,-48.8 675.26,-48.8 675.26,-84.8"/>
<text text-anchor="middle" x="604" y="-62.6" font-family="Times,serif" font-size="14.00">PageHomeComponent</text>
</g>
<!-- PageHomeModule -->
<g id="node9" class="node">
<title>PageHomeModule</title>
<polygon fill="#8dd3c7" stroke="black" points="842.48,-160.8 839.48,-164.8 818.48,-164.8 815.48,-160.8 721.52,-160.8 721.52,-124.8 842.48,-124.8 842.48,-160.8"/>
<text text-anchor="middle" x="782" y="-138.6" font-family="Times,serif" font-size="14.00">PageHomeModule</text>
</g>
<!-- PageHomeComponent&#45;&gt;PageHomeModule -->
<g id="edge7" class="edge">
<title>PageHomeComponent&#45;&gt;PageHomeModule</title>
<path fill="none" stroke="black" d="M604,-84.81C604,-107.29 604,-142.8 604,-142.8 604,-142.8 711.24,-142.8 711.24,-142.8"/>
<polygon fill="black" stroke="black" points="711.24,-146.3 721.24,-142.8 711.24,-139.3 711.24,-146.3"/>
</g>
<!-- PageHomeRoutingModule -->
<g id="node10" class="node">
<title>PageHomeRoutingModule</title>
<polygon fill="#8dd3c7" stroke="black" points="865.1,-84.8 862.1,-88.8 841.1,-88.8 838.1,-84.8 698.9,-84.8 698.9,-48.8 865.1,-48.8 865.1,-84.8"/>
<text text-anchor="middle" x="782" y="-62.6" font-family="Times,serif" font-size="14.00">PageHomeRoutingModule</text>
</g>
<!-- PageHomeRoutingModule&#45;&gt;PageHomeModule -->
<g id="edge8" class="edge">
<title>PageHomeRoutingModule&#45;&gt;PageHomeModule</title>
<path fill="none" stroke="black" d="M782,-84.81C782,-84.81 782,-114.65 782,-114.65"/>
<polygon fill="black" stroke="black" points="778.5,-114.65 782,-124.65 785.5,-114.65 778.5,-114.65"/>
</g>
<!-- SharedModule -->
<g id="node11" class="node">
<title>SharedModule</title>
<polygon fill="#8dd3c7" stroke="black" points="981.43,-84.8 978.43,-88.8 957.43,-88.8 954.43,-84.8 882.57,-84.8 882.57,-48.8 981.43,-48.8 981.43,-84.8"/>
<text text-anchor="middle" x="932" y="-62.6" font-family="Times,serif" font-size="14.00">SharedModule</text>
</g>
<!-- SharedModule&#45;&gt;PageHomeModule -->
<g id="edge9" class="edge">
<title>SharedModule&#45;&gt;PageHomeModule</title>
<path fill="none" stroke="black" d="M932,-84.83C932,-105.57 932,-136.8 932,-136.8 932,-136.8 852.58,-136.8 852.58,-136.8"/>
<polygon fill="black" stroke="black" points="852.58,-133.3 842.58,-136.8 852.58,-140.3 852.58,-133.3"/>
</g>
<!-- PageLoginModule -->
<g id="node13" class="node">
<title>PageLoginModule</title>
<polygon fill="#8dd3c7" stroke="black" points="1526.21,-160.8 1523.21,-164.8 1502.21,-164.8 1499.21,-160.8 1405.79,-160.8 1405.79,-124.8 1526.21,-124.8 1526.21,-160.8"/>
<text text-anchor="middle" x="1466" y="-138.6" font-family="Times,serif" font-size="14.00">PageLoginModule</text>
</g>
<!-- SharedModule&#45;&gt;PageLoginModule -->
<g id="edge12" class="edge">
<title>SharedModule&#45;&gt;PageLoginModule</title>
<path fill="none" stroke="black" d="M981.43,-57.8C1094.63,-57.8 1362.93,-57.8 1362.93,-57.8 1362.93,-57.8 1362.93,-142.8 1362.93,-142.8 1362.93,-142.8 1395.75,-142.8 1395.75,-142.8"/>
<polygon fill="black" stroke="black" points="1395.75,-146.3 1405.75,-142.8 1395.75,-139.3 1395.75,-146.3"/>
</g>
<!-- PageMessagesModule -->
<g id="node16" class="node">
<title>PageMessagesModule</title>
<polygon fill="#8dd3c7" stroke="black" points="1918.7,-160.8 1915.7,-164.8 1894.7,-164.8 1891.7,-160.8 1777.3,-160.8 1777.3,-124.8 1918.7,-124.8 1918.7,-160.8"/>
<text text-anchor="middle" x="1848" y="-138.6" font-family="Times,serif" font-size="14.00">PageMessagesModule</text>
</g>
<!-- SharedModule&#45;&gt;PageMessagesModule -->
<g id="edge15" class="edge">
<title>SharedModule&#45;&gt;PageMessagesModule</title>
<path fill="none" stroke="black" d="M907.39,-84.91C907.39,-94.7 907.39,-104.8 907.39,-104.8 907.39,-104.8 1824.47,-104.8 1824.47,-104.8 1824.47,-104.8 1824.47,-114.69 1824.47,-114.69"/>
<polygon fill="black" stroke="black" points="1820.97,-114.69 1824.47,-124.69 1827.97,-114.69 1820.97,-114.69"/>
</g>
<!-- NgImportModule  -->
<g id="node18" class="node">
<title>NgImportModule </title>
<polygon fill="#fb8072" stroke="black" points="1139.27,-160.8 1020.73,-160.8 1020.73,-124.8 1139.27,-124.8 1139.27,-160.8"/>
<text text-anchor="middle" x="1080" y="-138.6" font-family="Times,serif" font-size="14.00">NgImportModule </text>
</g>
<!-- SharedModule&#45;&gt;NgImportModule  -->
<g id="edge16" class="edge">
<title>SharedModule&#45;&gt;NgImportModule </title>
<path fill="none" stroke="black" stroke-dasharray="5,2" d="M956.61,-85C956.61,-109.16 956.61,-148.8 956.61,-148.8 956.61,-148.8 1010.83,-148.8 1010.83,-148.8"/>
<polygon fill="black" stroke="black" points="1010.83,-152.3 1020.83,-148.8 1010.83,-145.3 1010.83,-152.3"/>
</g>
<!-- UiModule  -->
<g id="node19" class="node">
<title>UiModule </title>
<polygon fill="#fb8072" stroke="black" points="1342.55,-160.8 1265.45,-160.8 1265.45,-124.8 1342.55,-124.8 1342.55,-160.8"/>
<text text-anchor="middle" x="1304" y="-138.6" font-family="Times,serif" font-size="14.00">UiModule </text>
</g>
<!-- SharedModule&#45;&gt;UiModule  -->
<g id="edge17" class="edge">
<title>SharedModule&#45;&gt;UiModule </title>
<path fill="none" stroke="black" stroke-dasharray="5,2" d="M981.4,-66.8C1082.59,-66.8 1304,-66.8 1304,-66.8 1304,-66.8 1304,-114.79 1304,-114.79"/>
<polygon fill="black" stroke="black" points="1300.5,-114.79 1304,-124.79 1307.5,-114.79 1300.5,-114.79"/>
</g>
<!-- UtilsModule  -->
<g id="node20" class="node">
<title>UtilsModule </title>
<polygon fill="#fb8072" stroke="black" points="1247.28,-160.8 1156.72,-160.8 1156.72,-124.8 1247.28,-124.8 1247.28,-160.8"/>
<text text-anchor="middle" x="1202" y="-138.6" font-family="Times,serif" font-size="14.00">UtilsModule </text>
</g>
<!-- SharedModule&#45;&gt;UtilsModule  -->
<g id="edge18" class="edge">
<title>SharedModule&#45;&gt;UtilsModule </title>
<path fill="none" stroke="black" stroke-dasharray="5,2" d="M981.52,-75.8C1059.47,-75.8 1202,-75.8 1202,-75.8 1202,-75.8 1202,-114.49 1202,-114.49"/>
<polygon fill="black" stroke="black" points="1198.5,-114.49 1202,-124.49 1205.5,-114.49 1198.5,-114.49"/>
</g>
<!-- PageLoginComponent -->
<g id="node12" class="node">
<title>PageLoginComponent</title>
<polygon fill="#ffffb3" stroke="black" points="1714.99,-84.8 1573.01,-84.8 1573.01,-48.8 1714.99,-48.8 1714.99,-84.8"/>
<text text-anchor="middle" x="1644" y="-62.6" font-family="Times,serif" font-size="14.00">PageLoginComponent</text>
</g>
<!-- PageLoginComponent&#45;&gt;PageLoginModule -->
<g id="edge10" class="edge">
<title>PageLoginComponent&#45;&gt;PageLoginModule</title>
<path fill="none" stroke="black" d="M1644,-84.81C1644,-107.29 1644,-142.8 1644,-142.8 1644,-142.8 1536.26,-142.8 1536.26,-142.8"/>
<polygon fill="black" stroke="black" points="1536.26,-139.3 1526.26,-142.8 1536.26,-146.3 1536.26,-139.3"/>
</g>
<!-- PageLoginRoutingModule -->
<g id="node14" class="node">
<title>PageLoginRoutingModule</title>
<polygon fill="#8dd3c7" stroke="black" points="1548.82,-84.8 1545.82,-88.8 1524.82,-88.8 1521.82,-84.8 1383.18,-84.8 1383.18,-48.8 1548.82,-48.8 1548.82,-84.8"/>
<text text-anchor="middle" x="1466" y="-62.6" font-family="Times,serif" font-size="14.00">PageLoginRoutingModule</text>
</g>
<!-- PageLoginRoutingModule&#45;&gt;PageLoginModule -->
<g id="edge11" class="edge">
<title>PageLoginRoutingModule&#45;&gt;PageLoginModule</title>
<path fill="none" stroke="black" d="M1466,-84.81C1466,-84.81 1466,-114.65 1466,-114.65"/>
<polygon fill="black" stroke="black" points="1462.5,-114.65 1466,-124.65 1469.5,-114.65 1462.5,-114.65"/>
</g>
<!-- PageMessagesComponent -->
<g id="node15" class="node">
<title>PageMessagesComponent</title>
<polygon fill="#ffffb3" stroke="black" points="2127.48,-84.8 1964.52,-84.8 1964.52,-48.8 2127.48,-48.8 2127.48,-84.8"/>
<text text-anchor="middle" x="2046" y="-62.6" font-family="Times,serif" font-size="14.00">PageMessagesComponent</text>
</g>
<!-- PageMessagesComponent&#45;&gt;PageMessagesModule -->
<g id="edge13" class="edge">
<title>PageMessagesComponent&#45;&gt;PageMessagesModule</title>
<path fill="none" stroke="black" d="M2046,-84.81C2046,-107.29 2046,-142.8 2046,-142.8 2046,-142.8 1928.64,-142.8 1928.64,-142.8"/>
<polygon fill="black" stroke="black" points="1928.64,-139.3 1918.64,-142.8 1928.64,-146.3 1928.64,-139.3"/>
</g>
<!-- PageMessagesRoutingModule -->
<g id="node17" class="node">
<title>PageMessagesRoutingModule</title>
<polygon fill="#8dd3c7" stroke="black" points="1941.32,-84.8 1938.32,-88.8 1917.32,-88.8 1914.32,-84.8 1754.68,-84.8 1754.68,-48.8 1941.32,-48.8 1941.32,-84.8"/>
<text text-anchor="middle" x="1848" y="-62.6" font-family="Times,serif" font-size="14.00">PageMessagesRoutingModule</text>
</g>
<!-- PageMessagesRoutingModule&#45;&gt;PageMessagesModule -->
<g id="edge14" class="edge">
<title>PageMessagesRoutingModule&#45;&gt;PageMessagesModule</title>
<path fill="none" stroke="black" d="M1871.53,-84.81C1871.53,-84.81 1871.53,-114.65 1871.53,-114.65"/>
<polygon fill="black" stroke="black" points="1868.03,-114.65 1871.53,-124.65 1875.03,-114.65 1868.03,-114.65"/>
</g>
<!-- NgImportModule -->
<g id="node21" class="node">
<title>NgImportModule</title>
<polygon fill="#8dd3c7" stroke="black" points="2281.27,-84.8 2278.27,-88.8 2257.27,-88.8 2254.27,-84.8 2166.73,-84.8 2166.73,-48.8 2281.27,-48.8 2281.27,-84.8"/>
<text text-anchor="middle" x="2224" y="-62.6" font-family="Times,serif" font-size="14.00">NgImportModule</text>
</g>
<!-- UiModule -->
<g id="node22" class="node">
<title>UiModule</title>
<polygon fill="#8dd3c7" stroke="black" points="2260.55,-160.8 2257.55,-164.8 2236.55,-164.8 2233.55,-160.8 2187.45,-160.8 2187.45,-124.8 2260.55,-124.8 2260.55,-160.8"/>
<text text-anchor="middle" x="2224" y="-138.6" font-family="Times,serif" font-size="14.00">UiModule</text>
</g>
<!-- NgImportModule&#45;&gt;UiModule -->
<g id="edge19" class="edge">
<title>NgImportModule&#45;&gt;UiModule</title>
<path fill="none" stroke="black" d="M2224,-84.81C2224,-84.81 2224,-114.65 2224,-114.65"/>
<polygon fill="black" stroke="black" points="2220.5,-114.65 2224,-124.65 2227.5,-114.65 2220.5,-114.65"/>
</g>
<!-- UtilsModule -->
<g id="node23" class="node">
<title>UtilsModule</title>
<polygon fill="#8dd3c7" stroke="black" points="2399.28,-160.8 2396.28,-164.8 2375.28,-164.8 2372.28,-160.8 2312.72,-160.8 2312.72,-124.8 2399.28,-124.8 2399.28,-160.8"/>
<text text-anchor="middle" x="2356" y="-138.6" font-family="Times,serif" font-size="14.00">UtilsModule</text>
</g>
<!-- NgImportModule&#45;&gt;UtilsModule -->
<g id="edge20" class="edge">
<title>NgImportModule&#45;&gt;UtilsModule</title>
<path fill="none" stroke="black" d="M2271.08,-84.81C2271.08,-107.29 2271.08,-142.8 2271.08,-142.8 2271.08,-142.8 2302.54,-142.8 2302.54,-142.8"/>
<polygon fill="black" stroke="black" points="2302.54,-146.3 2312.54,-142.8 2302.54,-139.3 2302.54,-146.3"/>
</g>
</g>
</svg>
